<svg width="100" height="100" version="1.1" viewBox="0 0 24 24" xmlns="http://www.w3.org/2000/svg">
 <path d="m1.8 1.2h20.4c0.31 0.00473 0.592 0.285 0.6 0.6v20.4c0.0028 0.325-0.288 0.604-0.6 0.6h-20.4c-0.327 0.00277-0.6-0.29-0.6-0.6v-20.4c1.27e-4 -0.336 0.272-0.597 0.6-0.6z" stroke="#000" stroke-linecap="round" stroke-linejoin="round" stroke-width=".398"/>
 <g fill="#fff">
  <rect x="-17.8" y="1.14" width="9.6" height="9.6" ry="2.15e-14" stroke-linecap="round" stroke-linejoin="round" stroke-width=".388"/>
  <rect x="8.4" y="1.2" width="7.2" height="7.2" ry="1.47e-14"/>
  <rect x="1.2" y="8.4" width="7.2" height="7.2" ry="1.47e-14"/>
  <rect x="8.4" y="15.6" width="7.2" height="7.2" ry="1.47e-14"/>
  <rect x="15.6" y="8.4" width="7.2" height="7.2" ry="1.47e-14"/>
  <path d="m9.3 12a2.7 2.7 0 0 1 2.66-2.74 2.7 2.7 0 0 1 2.74 2.65 2.7 2.7 0 0 1-2.65 2.74 2.7 2.7 0 0 1-2.75-2.65l2.7-0.0471z"/>
  <path d="m2.02 19.2a2.7 2.7 0 0 1 2.66-2.74 2.7 2.7 0 0 1 2.74 2.65 2.7 2.7 0 0 1-2.65 2.74 2.7 2.7 0 0 1-2.75-2.65l2.7-0.0471z"/>
  <path d="m16.5 19.2a2.7 2.7 0 0 1 2.66-2.74 2.7 2.7 0 0 1 2.74 2.65 2.7 2.7 0 0 1-2.65 2.74 2.7 2.7 0 0 1-2.75-2.65l2.7-0.0471z"/>
 </g>
</svg>
