<svg version="1.1" id="real_x5F_estate_1_" xmlns="http://www.w3.org/2000/svg" x="0" y="0" viewBox="0 0 128 128"><g id="Sofa_1_"><path class="st2" d="M117.1 46.3c-7.3 0-10.9 8.2-10.9 8.2s-2.7 7.8-2.7 16.3c0 3.1.2 6.3.5 9.3-8-2.4-24.3-6.6-38.6-6.6-14.4 0-32.7 4.4-41.4 6.8.3-3.1.5-6.4.5-9.5 0-9.1-2.7-16.3-2.7-16.3s-3.6-8.2-10.9-8.2C4.6 46.3 0 48.5 0 57.2s16.3 38.1 16.3 38.1h19v8.2h10.9v-8.2h38.1v8.2h10.9v-8.2h16.3s16.3-29.4 16.3-38.1c.2-8.7-4.4-10.9-10.7-10.9zm-92.6 5.4c1.1 2.5 2.7 12.6 2.7 19.1v5.4s19.8-5.4 38.1-5.4c18.5 0 35.4 5.4 35.4 5.4v-5.4c0-3.1 1.4-15.8 2.7-19.1 1.9-4.8 13.6-10.9 13.6-10.9 0-3-3-3.9-5.4-5.4 0 0-25.1-10.9-46.3-10.9-21 0-46.3 10.9-46.3 10.9-2.6 1.4-5.4 2.4-5.4 5.4 0 .1 9.8 8.4 10.9 10.9z" id="icon_16_"/></g></svg>