<?xml version="1.0" encoding="utf-8"?><svg version="1.1" id="Layer_1" xmlns="http://www.w3.org/2000/svg" xmlns:xlink="http://www.w3.org/1999/xlink" x="0px" y="0px" viewBox="0 0 115.28 122.88" style="enable-background:new 0 0 115.28 122.88" xml:space="preserve"><style type="text/css">.st0{fill-rule:evenodd;clip-rule:evenodd;}</style><g><path class="st0" d="M21.93,57h68.32V37.34H69.59c-2.17,0-5.19-1.17-6.62-2.6c-1.43-1.43-2.3-4.01-2.3-6.17V7.64l0,0H8.15 c-0.18,0-0.32,0.09-0.41,0.18C7.59,7.92,7.55,8.05,7.55,8.24v106.45c0,0.14,0.09,0.32,0.18,0.41c0.09,0.14,0.28,0.18,0.41,0.18 c22.78,0,58.09,0,81.51,0c0.18,0,0.17-0.09,0.27-0.18c0.14-0.09,0.33-0.28,0.33-0.41v-11.16H21.93c-4.14,0-7.56-3.4-7.56-7.56 V64.55C14.38,60.4,17.78,57,21.93,57L21.93,57z M25.97,69.89h8.9c1.75,0,3.17,0.24,4.25,0.71c1.08,0.48,1.97,1.16,2.68,2.05 c0.7,0.89,1.21,1.93,1.53,3.11c0.32,1.18,0.48,2.43,0.48,3.75c0,2.07-0.23,3.67-0.71,4.82c-0.47,1.14-1.12,2.1-1.96,2.87 c-0.84,0.77-1.74,1.28-2.7,1.54c-1.31,0.35-2.5,0.53-3.57,0.53h-8.9V69.89L25.97,69.89z M31.94,74.27v10.58h1.47 c1.25,0,2.15-0.14,2.68-0.42c0.53-0.28,0.94-0.76,1.24-1.45c0.3-0.69,0.45-1.81,0.45-3.36c0-2.05-0.33-3.45-1.01-4.21 c-0.67-0.76-1.79-1.14-3.34-1.14H31.94L31.94,74.27z M44.87,79.59c0-3.16,0.88-5.62,2.64-7.38c1.76-1.76,4.22-2.64,7.36-2.64 c3.22,0,5.71,0.87,7.45,2.59c1.75,1.73,2.62,4.16,2.62,7.27c0,2.26-0.38,4.12-1.14,5.56c-0.76,1.45-1.87,2.57-3.3,3.38 c-1.44,0.81-3.24,1.21-5.39,1.21c-2.18,0-3.99-0.35-5.42-1.04c-1.43-0.7-2.59-1.8-3.48-3.3C45.31,83.74,44.87,81.85,44.87,79.59 L44.87,79.59z M50.84,79.6c0,1.95,0.37,3.36,1.09,4.21c0.73,0.85,1.72,1.28,2.98,1.28c1.28,0,2.29-0.42,2.99-1.25 c0.71-0.84,1.06-2.34,1.06-4.5c0-1.82-0.37-3.15-1.1-3.99c-0.74-0.84-1.74-1.26-3-1.26c-1.21,0-2.18,0.43-2.91,1.28 C51.21,76.22,50.84,77.63,50.84,79.6L50.84,79.6z M79.76,81.33l5.25,1.58c-0.35,1.47-0.91,2.7-1.67,3.68 c-0.76,0.99-1.7,1.73-2.82,2.23c-1.12,0.5-2.55,0.75-4.29,0.75c-2.11,0-3.83-0.31-5.17-0.92c-1.33-0.61-2.48-1.69-3.45-3.23 c-0.97-1.54-1.46-3.51-1.46-5.91c0-3.2,0.85-5.66,2.56-7.39c1.71-1.72,4.12-2.58,7.24-2.58c2.44,0,4.36,0.49,5.76,1.48 c1.39,0.99,2.43,2.5,3.11,4.55l-5.28,1.17c-0.18-0.59-0.38-1.01-0.58-1.28c-0.34-0.46-0.75-0.81-1.23-1.05 c-0.49-0.25-1.03-0.37-1.63-0.37c-1.36,0-2.4,0.55-3.12,1.63c-0.55,0.81-0.82,2.08-0.82,3.81c0,2.15,0.32,3.61,0.98,4.41 c0.65,0.79,1.57,1.19,2.75,1.19c1.15,0,2.01-0.32,2.6-0.96C79.07,83.49,79.49,82.56,79.76,81.33L79.76,81.33z M85.27,69.89h6.6 l3.43,5.96l3.33-5.96h6.52l-6.02,9.38l6.59,9.99h-6.74l-3.8-6.22l-3.83,6.22h-6.68l6.68-10.1L85.27,69.89L85.27,69.89z M97.79,57 h9.93c4.16,0,7.56,3.41,7.56,7.56v31.42c0,4.15-3.41,7.56-7.56,7.56h-9.93v13.55c0,1.61-0.65,3.04-1.7,4.1 c-1.06,1.06-2.49,1.7-4.1,1.7c-29.44,0-56.59,0-86.18,0c-1.61,0-3.04-0.64-4.1-1.7c-1.06-1.06-1.7-2.49-1.7-4.1V5.85 c0-1.61,0.65-3.04,1.7-4.1c1.06-1.06,2.53-1.7,4.1-1.7h58.72C64.66,0,64.8,0,64.94,0c0.64,0,1.29,0.28,1.75,0.69h0.09 c0.09,0.05,0.14,0.09,0.23,0.18l29.99,30.36c0.51,0.51,0.88,1.2,0.88,1.98c0,0.23-0.05,0.41-0.09,0.65V57L97.79,57z M67.52,27.97 V8.94l21.43,21.7H70.19c-0.74,0-1.38-0.32-1.89-0.78C67.84,29.4,67.52,28.71,67.52,27.97L67.52,27.97z"/></g></svg>