<svg width="100" height="100" version="1.1" viewBox="0 0 24 24" xmlns="http://www.w3.org/2000/svg">
 <path d="m7.68 2.32v0 14.6 0 0-14.6 0z" stroke-linecap="round" stroke-linejoin="round" stroke-width=".284"/>
 <path transform="scale(.24)" d="m15.7 8.79c-3.25 0.0356-5.66 2.66-5.67 5.52v68.9h-5.24c-2.64 0-2.59 7.34 0 7.35h90.5c2.73 0 2.61-7.35 0-7.35h-5.2v-68.9c0.00645-2.98-2.48-5.49-5.67-5.52h-68.7zm5.19 5.05a5.35 5.35 0 0 1 5.44 5.26 5.35 5.35 0 0 1-5.26 5.44 5.35 5.35 0 0 1-5.44-5.26l5.35-0.0938-5.35 0.0859a5.35 5.35 0 0 1 5.27-5.44zm14.5 0a5.35 5.35 0 0 1 5.44 5.26 5.35 5.35 0 0 1-5.26 5.44 5.35 5.35 0 0 1-5.44-5.26l5.35-0.0938-5.35 0.0859a5.35 5.35 0 0 1 5.27-5.44zm14.5 0a5.35 5.35 0 0 1 5.44 5.26 5.35 5.35 0 0 1-5.26 5.44 5.35 5.35 0 0 1-5.44-5.26l5.35-0.0938-5.35 0.0859a5.35 5.35 0 0 1 5.26-5.44zm14.5 0a5.35 5.35 0 0 1 5.44 5.26 5.35 5.35 0 0 1-5.26 5.44 5.35 5.35 0 0 1-5.44-5.26l5.35-0.0938-5.35 0.0859a5.35 5.35 0 0 1 5.27-5.44zm14.5 0a5.35 5.35 0 0 1 5.44 5.26 5.35 5.35 0 0 1-5.26 5.44 5.35 5.35 0 0 1-5.44-5.26l5.35-0.0938-5.35 0.0859a5.35 5.35 0 0 1 5.26-5.44zm-58.1 13.8a5.35 5.35 0 0 1 5.44 5.26 5.35 5.35 0 0 1-5.26 5.44 5.35 5.35 0 0 1-5.44-5.26l5.35-0.0938-5.35 0.0859a5.35 5.35 0 0 1 5.27-5.44zm14.5 0a5.35 5.35 0 0 1 5.44 5.26 5.35 5.35 0 0 1-5.26 5.44 5.35 5.35 0 0 1-5.44-5.26l5.35-0.0938-5.35 0.0859a5.35 5.35 0 0 1 5.27-5.44zm14.5 0a5.35 5.35 0 0 1 5.44 5.26 5.35 5.35 0 0 1-5.26 5.44 5.35 5.35 0 0 1-5.44-5.26l5.35-0.0938-5.35 0.0859a5.35 5.35 0 0 1 5.26-5.44zm14.5 0a5.35 5.35 0 0 1 5.44 5.26 5.35 5.35 0 0 1-5.26 5.44 5.35 5.35 0 0 1-5.44-5.26l5.35-0.0938-5.35 0.0859a5.35 5.35 0 0 1 5.27-5.44zm14.5 0a5.35 5.35 0 0 1 5.44 5.26 5.35 5.35 0 0 1-5.26 5.44 5.35 5.35 0 0 1-5.44-5.26l5.35-0.0938-5.35 0.0859a5.35 5.35 0 0 1 5.26-5.44zm-58.1 13.8a5.35 5.35 0 0 1 5.44 5.26 5.35 5.35 0 0 1-5.26 5.44 5.35 5.35 0 0 1-5.44-5.26l5.35-0.0918-5.35 0.084a5.35 5.35 0 0 1 5.27-5.44zm14.5 0a5.35 5.35 0 0 1 5.44 5.26 5.35 5.35 0 0 1-5.26 5.44 5.35 5.35 0 0 1-5.44-5.26l5.35-0.0918-5.35 0.084a5.35 5.35 0 0 1 5.27-5.44zm14.5 0a5.35 5.35 0 0 1 5.44 5.26 5.35 5.35 0 0 1-5.26 5.44 5.35 5.35 0 0 1-5.44-5.26l5.35-0.0918-5.35 0.084a5.35 5.35 0 0 1 5.26-5.44zm14.5 0a5.35 5.35 0 0 1 5.44 5.26 5.35 5.35 0 0 1-5.26 5.44 5.35 5.35 0 0 1-5.44-5.26l5.35-0.0918-5.35 0.084a5.35 5.35 0 0 1 5.27-5.44zm14.5 0a5.35 5.35 0 0 1 5.44 5.26 5.35 5.35 0 0 1-5.26 5.44 5.35 5.35 0 0 1-5.44-5.26l5.35-0.0918-5.35 0.084a5.35 5.35 0 0 1 5.26-5.44zm-58.1 13.8a5.35 5.35 0 0 1 5.44 5.26 5.35 5.35 0 0 1-5.26 5.44 5.35 5.35 0 0 1-5.44-5.26l5.35-0.0938-5.35 0.0859a5.35 5.35 0 0 1 5.27-5.44zm14.5 0a5.35 5.35 0 0 1 5.44 5.26 5.35 5.35 0 0 1-5.26 5.44 5.35 5.35 0 0 1-5.44-5.26l5.35-0.0938-5.35 0.0859a5.35 5.35 0 0 1 5.27-5.44zm14.5 0a5.35 5.35 0 0 1 5.44 5.26 5.35 5.35 0 0 1-5.26 5.44 5.35 5.35 0 0 1-5.44-5.26l5.35-0.0938-5.35 0.0859a5.35 5.35 0 0 1 5.26-5.44zm14.5 0a5.35 5.35 0 0 1 5.44 5.26 5.35 5.35 0 0 1-5.26 5.44 5.35 5.35 0 0 1-5.44-5.26l5.35-0.0938-5.35 0.0859a5.35 5.35 0 0 1 5.27-5.44zm14.5 0a5.35 5.35 0 0 1 5.44 5.26 5.35 5.35 0 0 1-5.26 5.44 5.35 5.35 0 0 1-5.44-5.26l5.35-0.0938-5.35 0.0859a5.35 5.35 0 0 1 5.26-5.44zm-58.1 13.8a5.35 5.35 0 0 1 5.44 5.26 5.35 5.35 0 0 1-5.26 5.44 5.35 5.35 0 0 1-5.44-5.26l5.35-0.0938-5.35 0.0859a5.35 5.35 0 0 1 5.27-5.44zm14.5 0a5.35 5.35 0 0 1 5.44 5.26 5.35 5.35 0 0 1-5.26 5.44 5.35 5.35 0 0 1-5.44-5.26l5.35-0.0938-5.35 0.0859a5.35 5.35 0 0 1 5.27-5.44zm14.5 0a5.35 5.35 0 0 1 5.44 5.26 5.35 5.35 0 0 1-5.26 5.44 5.35 5.35 0 0 1-5.44-5.26l5.35-0.0938-5.35 0.0859a5.35 5.35 0 0 1 5.26-5.44zm14.5 0a5.35 5.35 0 0 1 5.44 5.26 5.35 5.35 0 0 1-5.26 5.44 5.35 5.35 0 0 1-5.44-5.26l5.35-0.0938-5.35 0.0859a5.35 5.35 0 0 1 5.27-5.44zm14.5 0a5.35 5.35 0 0 1 5.44 5.26 5.35 5.35 0 0 1-5.26 5.44 5.35 5.35 0 0 1-5.44-5.26l5.35-0.0938-5.35 0.0859a5.35 5.35 0 0 1 5.26-5.44z" stroke-linecap="round" stroke-linejoin="round" stroke-width="2.16"/>
</svg>
