<svg width="64" height="64" xmlns="http://www.w3.org/2000/svg" enable-background="new 0 0 64 64" viewBox="0 0 64 64" id="pray"><path fill="#000" d="M27.9172325 19.6755047c-1.08671 0-1.9709911 1.062067-1.9709911 2.367178v8.1620979c0 .4258308-.3490467.7713165-.7792645.7713165-.4302197 0-.7792645-.3454857-.7792645-.7713165v-8.1620979-8.0912914c0-1.3051119-.8842831-2.3666773-1.970993-2.3666773-1.0872154 0-1.9714985 1.0615654-1.9714985 2.3666773v16.1981525.0833569c0 .4258327-.3490448.7713184-.7792645.7713184-.4302177 0-.7792645-.3454857-.7792645-.7713184v-.0833569V13.9513912 9.3671789C18.886692 8.062067 18.002409 7 16.9157009 7s-1.9709911 1.062067-1.9709911 2.3671789v2.3847542 18.3976097.1109772c0 .4258308-.3490458.7713165-.7792645.7713165s-.7792645-.3454857-.7792645-.7713165v-.1109772V11.7519331c0-1.3051119-.8842831-2.3666763-1.9709921-2.3666763s-1.9709911 1.0615644-1.9709911 2.3666763v18.1530571 1.3568344 3.0273933c-.0009508.1537247.0362749 2.1558342 2.502677 2.925705 3.6157675 1.1288528 3.7689819 4.7223053 3.3448515 6.464798-.0857391.3535194-.4048529.5905418-.7569418.5905418-.0603733 0-.1217604-.0070305-.1831474-.021595-.4180431-.0994263-.6757689-.5162201-.5748091-.9305.0344982-.1466293.8269539-3.6562233-2.2987289-4.631916-2.714426-.8475227-3.5060568-2.9565887-3.5784783-4.1727562-.0022197-.0237274-.0139518-.0441895-.0139518-.0684814v-3.1831894-1.3568344c0-1.1122818-.5545158-2.2341061-1.7934246-2.2341061h-.819344C4.5712576 27.6708851 4 28.2885399 4 29.0473042v5.0020084c0 2.7754326.5190024 4.9648476 1.5864325 6.6932793l5.2681532 8.5291786c.369339.6482849.5565453 1.3693848.5565453 2.109066V57h14.408783v-4.5726624c0-1.3538208.3155632-2.6910706.9116802-3.8671303l1.6280327-3.2092972c.9999542-1.971981 1.5285969-4.2201462 1.5285969-6.5014572V22.0426826C29.8882236 20.7375717 29.0039406 19.6755047 27.9172325 19.6755047zM60 34.0493126v-5.0020084c0-.7587643-.5712585-1.3764191-1.2728996-1.3764191h-.8193436c-1.2389107 0-1.7934265 1.1218243-1.7934265 2.2341061v1.3568344 3.1831894c0 .024292-.0117302.044754-.0139503.0684814-.072422 1.2161674-.8640518 3.3252335-3.5784798 4.1727562-3.1256828.9756927-2.3332253 4.4852867-2.2982216 4.6344261.098423.4137802-.1603165.8290634-.5778503.9274902-.0608826.0140572-.1217613.0210876-.1816254.0210876-.3515854 0-.6701889-.236515-.755928-.5895348-.4241333-1.7424927-.270916-5.3359451 3.3448486-6.464798 2.3488312-.7332764 2.4944992-2.5905762 2.5026779-2.8991547v-3.0539436-1.3568344V11.7519331c0-1.3051119-.8842812-2.3666763-1.9709892-2.3666763-1.0867119 0-1.970993 1.0615644-1.970993 2.3666763v18.3976097.1109772c0 .4258308-.3490448.7713165-.7792625.7713165-.4302216 0-.7792664-.3454857-.7792664-.7713165v-.1109772V11.7519331 9.3671789C49.0552902 8.062067 48.1710091 7 47.0842972 7c-1.0867081 0-1.9709892 1.062067-1.9709892 2.3671789v4.5842123 16.1981525.0833569c0 .4258327-.3490448.7713184-.7792664.7713184-.4302177 0-.7792625-.3454857-.7792625-.7713184v-.0833569V13.9513912c0-1.3051119-.884285-2.3666773-1.9715004-2.3666773-1.0867081 0-1.9709892 1.0615654-1.9709892 2.3666773v8.0912914 8.1620979c0 .4258308-.3490448.7713165-.7792664.7713165-.4302177 0-.7792625-.3454857-.7792625-.7713165v-8.1620979c0-1.3051109-.884285-2.367178-1.970993-2.367178s-1.9709892 1.062067-1.9709892 2.367178V38.849453c0 2.2823143.5286407 4.5304794 1.528595 6.5014572l1.6280327 3.2092972c.5961189 1.1760597.9116783 2.5133095.9116783 3.8671303V57H52.588871v-5.6191635c0-.7396812.1872063-1.4607811.541832-2.0849648l5.2828636-8.5532799C59.480999 39.0141602 60 36.8247452 60 34.0493126z"></path></svg>