<svg width="100" height="100" version="1.1" viewBox="0 0 24 24" xmlns="http://www.w3.org/2000/svg">
 <g stroke-linecap="round" stroke-linejoin="round">
  <path d="m7.65 2.68v15.1-15.1z" stroke-width=".293"/>
  <path d="m0.798 15.5h22.4s-0.646 0 0 0 0.675 1.2 0 1.2h-22.4s0.641 0.0012 0 0c-0.641-0.0012-0.653-1.2 0-1.2z" stroke-width=".434"/>
  <g stroke-width=".434">
   <path d="m0.798 7.22h22.4s-0.646 0 0 0 0.675 1.2 0 1.2h-22.4s0.641 0.00121 0 0c-0.641-0.00121-0.653-1.2 0-1.2z"/>
   <path d="m8.38 0.844v22.4 0c0 0.646-1.2 0.675-1.2 0v-22.4s-0.0012 0.641 0 0c0.00121-0.641 1.2-0.653 1.2 0z"/>
   <path d="m16.8 0.844v22.4 0c0 0.646-1.2 0.675-1.2 0v-22.4s-0.0012 0.641 0 0c0.0012-0.641 1.2-0.653 1.2 0z"/>
  </g>
 </g>
 <g stroke-width=".369">
  <g transform="matrix(1.43 0 0 1.35 -9.12 -6.17)" aria-label="O">
   <path d="m20.6 11.3c-1.14 0-1.85 0.827-1.85 2.08 0 1.31 0.627 2.02 1.74 2.02 1.11 0 1.88-0.855 1.88-2.11 0-1.23-0.656-2-1.77-2zm-0.0285 0.485c0.741 0 1.14 0.513 1.14 1.54 0 1.08-0.456 1.6-1.2 1.6-0.741 0-1.11-0.542-1.11-1.57 0-1.08 0.428-1.57 1.17-1.57z"/>
  </g>
  <g transform="matrix(1.42 0 0 1.32 -14.9 12.6)" aria-label="X">
   <path d="m11.5 7.29-0.367 0.0847v0.339h1.5v-0.339l-0.48-0.113 0.847-1.13 0.79 1.16-0.339 0.0847v0.339h1.52v-0.339l-0.48-0.113-1.1-1.58 1.02-1.47 0.508-0.113v-0.339l-1.5 0.0282v0.31l0.395 0.113-0.734 1.07-0.734-1.07 0.367-0.113v-0.339l-1.5 0.0282v0.31l0.423 0.113 1.04 1.5z"/>
  </g>
  <g transform="matrix(1.42 0 0 1.32 -6.53 -3.87)" aria-label="X">
   <path d="m11.5 7.29-0.367 0.0847v0.339h1.5v-0.339l-0.48-0.113 0.847-1.13 0.79 1.16-0.339 0.0847v0.339h1.52v-0.339l-0.48-0.113-1.1-1.58 1.02-1.47 0.508-0.113v-0.339l-1.5 0.0282v0.31l0.395 0.113-0.734 1.07-0.734-1.07 0.367-0.113v-0.339l-1.5 0.0282v0.31l0.423 0.113 1.04 1.5z"/>
  </g>
 </g>
</svg>
